Coordinates
version=1
nRows=49
nColumns=12
inDegrees=yes

Units are S.I. units (second, meters, Newtons, ...)
Angles are in degrees

endheader
time	SC_y	SC_z	SC_x	AC_y	AC_z	AC_x	GH_y	GH_z	GH_yy	EL_x	PS_y
       0.0              -27.29         -1.301          33.61          35.25          -0.94         -8.093         -162.1          86.88          95.32          132.2          146.1
   0.02805              -27.29         -1.297           33.6          35.26        -0.9419         -8.095         -162.0          86.88          95.32          132.2          146.1
    0.0561              -27.29         -1.294           33.6          35.26        -0.9438         -8.096         -162.0          86.88          95.33          132.2          146.1
   0.08415              -27.29          -1.29           33.6          35.27        -0.9459         -8.098         -162.0          86.88          95.33          132.2          146.1
    0.1122              -27.28         -1.286           33.6          35.28        -0.9482           -8.1         -161.9          86.88          95.33          132.2          146.1
    0.1403              -27.28         -1.281           33.6          35.28        -0.9505         -8.102         -161.9          86.88          95.34          132.1          146.0
    0.1683              -27.28         -1.277           33.6          35.29        -0.9531         -8.104         -161.9          86.88          95.35          132.1          146.0
    0.1964              -27.28         -1.272           33.6          35.29        -0.9558         -8.107         -161.8          86.88          95.35          132.1          146.0
    0.2244              -27.27         -1.266          33.59           35.3        -0.9587         -8.109         -161.8          86.88          95.36          132.1          145.9
    0.2525              -27.27         -1.261          33.59          35.31        -0.9618         -8.112         -161.7          86.88          95.36          132.0          145.9
    0.2805              -27.27         -1.255          33.59          35.32        -0.9652         -8.115         -161.7          86.88          95.37          132.0          145.9
    0.3086              -27.26         -1.248          33.59          35.33        -0.9688         -8.118         -161.6          86.88          95.38          132.0          145.8
    0.3366              -27.26         -1.241          33.59          35.34        -0.9727         -8.121         -161.6          86.88          95.39          131.9          145.8
    0.3647              -27.25         -1.233          33.58          35.35        -0.9769         -8.125         -161.5          86.88           95.4          131.9          145.8
    0.3927              -27.25         -1.225          33.58          35.36        -0.9815         -8.129         -161.4          86.88          95.41          131.9          145.7
    0.4208              -27.24         -1.216          33.58          35.37        -0.9864         -8.133         -161.3          86.88          95.42          131.8          145.7
    0.4488              -27.24         -1.206          33.58          35.38        -0.9918         -8.137         -161.3          86.88          95.43          131.8          145.6
    0.4769              -27.23         -1.195          33.57           35.4        -0.9976         -8.142         -161.2          86.88          95.44          131.7          145.5
    0.5049              -27.23         -1.183          33.57          35.42         -1.004         -8.148         -161.1          86.88          95.45          131.7          145.5
     0.533              -27.22         -1.171          33.56          35.43         -1.011         -8.154         -161.0          86.88          95.47          131.6          145.4
     0.561              -27.21         -1.157          33.56          35.45         -1.019          -8.16         -160.9          86.88          95.48          131.6          145.3
    0.5891               -27.2         -1.141          33.55          35.47         -1.027         -8.167         -160.7          86.88           95.5          131.5          145.2
    0.6171              -27.19         -1.124          33.55           35.5         -1.036         -8.175         -160.6          86.88          95.52          131.4          145.1
    0.6452              -27.18         -1.105          33.54          35.52         -1.047         -8.184         -160.4          86.88          95.54          131.3          145.0
    0.6732              -27.17         -1.084          33.54          35.55         -1.058         -8.194         -160.3          86.88          95.57          131.2          144.9
    0.7013              -27.16         -1.061          33.53          35.58         -1.071         -8.205         -160.1          86.88           95.6          131.1          144.8
    0.7293              -27.14         -1.034          33.52          35.62         -1.085         -8.217         -159.8          86.88          95.63          131.0          144.6
    0.7574              -27.13         -1.005          33.51          35.66         -1.102         -8.231         -159.6          86.88          95.66          130.9          144.5
    0.7854              -27.11        -0.9711           33.5          35.71          -1.12         -8.246         -159.3          86.88           95.7          130.7          144.3
    0.8135              -27.09        -0.9332          33.49          35.76         -1.141         -8.264         -159.0          86.88          95.74          130.5          144.0
    0.8415              -27.06        -0.8898          33.47          35.82         -1.164         -8.284         -158.7          86.88          95.79          130.3          143.8
    0.8696              -27.03          -0.84          33.46          35.89         -1.191         -8.307         -158.2          86.87          95.85          130.1          143.5
    0.8976               -27.0        -0.7826          33.44          35.96         -1.223         -8.334         -157.8          86.87          95.92          129.8          143.2
    0.9257              -26.96        -0.7158          33.42          36.06         -1.259         -8.365         -157.2          86.87           96.0          129.5          142.8
    0.9537              -26.92        -0.6377          33.39          36.16         -1.302         -8.401         -156.6          86.87          96.09          129.2          142.4
    0.9818              -26.87        -0.5456          33.37          36.29         -1.352         -8.444         -155.8          86.87          96.19          128.7          141.8
      1.01              -26.81        -0.4362          33.33          36.44         -1.412         -8.495         -154.9          86.87          96.32          128.2          141.2
     1.038              -26.74        -0.3051          33.29          36.62         -1.483         -8.556         -153.8          86.87          96.47          127.6          140.5
     1.066              -26.65        -0.1464          33.24          36.84          -1.57          -8.63         -152.5          86.87          96.66          126.9          139.6
     1.094              -26.54        0.04747          33.18           37.1         -1.675          -8.72         -150.9          86.87          96.88          126.0          138.5
     1.122              -26.41         0.2867           33.1          37.43         -1.806         -8.831         -148.9          86.86          97.16          124.9          137.1
      1.15              -26.24         0.5851          33.01          37.84         -1.969         -8.969         -146.5          86.86          97.51          123.5          135.4
     1.178              -26.03         0.9609          32.89          38.35         -2.174         -9.144         -143.3          86.85          97.95          121.8          133.2
     1.206              -25.76          1.439          32.73          39.01         -2.434         -9.366         -139.4          86.85           98.5          119.6          130.5
     1.234              -25.42           2.05          32.54          39.84         -2.768          -9.65         -134.3          86.84          99.21          116.7          127.0
     1.262              -24.98          2.835          32.29          40.92         -3.196         -10.01         -127.8          86.83          100.1          113.1          122.6
      1.29              -24.42          3.837          31.97          42.29         -3.742         -10.48         -119.6          86.82          101.3          108.5          116.9
     1.318              -23.72          5.098          31.57          44.02          -4.43         -11.07         -109.1          86.81          102.8          102.7          109.7
     1.346              -22.86          6.634          31.08          46.12         -5.267         -11.78         -96.43          86.79          104.5          95.58          100.9
